Coordinates
version=1
nRows=6
nColumns=40
inDegrees=yes

Units are S.I. units (second, meters, Newtons, ...)
If the header above contains a line with 'inDegrees', this indicates whether rotational values are in degrees (yes) or radians (no).

endheader
time	pelvis_tilt	pelvis_list	pelvis_rotation	pelvis_tx	pelvis_ty	pelvis_tz	hip_flexion_r	hip_adduction_r	hip_rotation_r	knee_angle_r	knee_angle_r_beta	ankle_angle_r	subtalar_angle_r	mtp_angle_r	hip_flexion_l	hip_adduction_l	hip_rotation_l	knee_angle_l	knee_angle_l_beta	ankle_angle_l	subtalar_angle_l	mtp_angle_l	lumbar_extension	lumbar_bending	lumbar_rotation	arm_flex_r	arm_add_r	arm_rot_r	elbow_flex_r	pro_sup_r	wrist_flex_r	wrist_dev_r	arm_flex_l	arm_add_l	arm_rot_l	elbow_flex_l	pro_sup_l	wrist_flex_l	wrist_dev_l
      6.08000000000000007105	     26.29844634387522361862	      6.24460729339390407944	   -177.61161533859356609355	      0.38185162099202013541	      0.83898546109097660306	     -0.61257324435532833906	     47.94631511288468317389	     -4.21162246488876501616	    -17.27011223073882106860	     22.71001801199311387336	      0.39636458749649694511	      2.46061742906532687769	      0.00000000000000000000	      0.00000000000000000000	     52.74859559364325178876	    -11.55879585660829711458	     -0.04755029145602700236	     27.42960110286639263677	      0.47873685175368640987	      1.59561204421233582273	      0.00000000000000000000	      0.00000000000000000000	     -1.63282829067872303774	     11.34840767056414279068	     -0.02302572068508217801	     30.30015581805850288788	    -11.80243274864089642051	     66.47464247607129550488	      1.59681700097519296833	     83.70264094806327648257	      0.00000000000000000000	      0.00000000000000000000	     21.10524291782789418903	     -6.67265520246112586733	     85.73543220175838541763	      0.73883765973151571682	      3.48016963613565133429	      0.00000000000000000000	      0.00000000000000000000
      6.08499999999999996447	     26.27471335696157694883	      6.18174824316629756282	   -177.61059885441270012052	      0.38023379653847594328	      0.83975849162353277677	     -0.61231879542594014332	     47.61899312338572798353	     -4.24158557215150722186	    -17.46647117375152191698	     22.39671052431715025932	      0.39089634026539982203	      2.43757684009605135600	      0.00000000000000000000	      0.00000000000000000000	     52.41538394636474862409	    -11.48093678084106450399	     -0.04114403106605174498	     27.13925814052235097051	      0.47366941110078891741	      1.63484747198862101492	      0.00000000000000000000	      0.00000000000000000000	     -1.05746654531675532418	     11.23448779621477022772	     -0.07608101712833008345	     29.87581543751948132126	    -11.82447769118681435430	     64.82883287793887916450	      1.62814122644954695218	     84.77485295788218877533	      0.00000000000000000000	      0.00000000000000000000	     20.71126290478726161837	     -6.71406329885346941921	     85.83472197373477285964	      0.75867108095687574298	      3.37078382707322532497	      0.00000000000000000000	      0.00000000000000000000
      6.08999999999999985789	     26.09995072060330656427	      6.32489718353932062200	   -177.72207367690319301801	      0.37848084427864153723	      0.84082677154834095656	     -0.61242447609321193358	     46.95616642441643051598	     -3.85867424761330557459	    -17.33797054187785136037	     21.65456431384998836620	      0.37794344536154905745	      2.29554133708226171251	      0.00000000000000000000	      0.00000000000000000000	     52.01671744488578497112	    -11.74012616469132375130	     -0.20624073174750856552	     27.00221957730792610164	      0.47127763697049485092	      1.71092713994751099982	      0.00000000000000000000	      0.00000000000000000000	     -0.67871871685141382802	     11.36209943771842389992	     -0.21470422266010030787	     29.53649095820693659675	    -11.76602121952852364473	     64.99697902664929927141	      1.66824962224972561664	     84.18051948875987022802	      0.00000000000000000000	      0.00000000000000000000	     20.32034529992906612961	     -6.72714589031750165304	     84.79716149440459105335	      0.75642505294712458763	      3.68692428741924294044	      0.00000000000000000000	      0.00000000000000000000
      6.09499999999999975131	     25.95738998168393862898	      6.43114120493477958718	   -177.59445139079454634157	      0.37673321507363427552	      0.84173073639533457779	     -0.61197431021540582563	     46.47397214401249243565	     -3.83937074234642494730	    -17.78094367475343418050	     21.33897369193147142141	      0.37243534992065430167	      2.28136012447546887572	      0.00000000000000000000	      0.00000000000000000000	     51.60938100360094438201	    -11.71765457685427591628	     -0.08366604687674117358	     26.69619492382041769929	      0.46593649917486307244	      1.77149031938347456538	      0.00000000000000000000	      0.00000000000000000000	     -0.23889568633658642138	     11.49785539197805839251	     -0.52166498862432442163	     29.23541921623461092850	    -11.75247758294413280566	     63.83075617119099831598	      1.69988244545062183732	     85.00797877448395922784	      0.00000000000000000000	      0.00000000000000000000	     19.89367519445610810180	     -6.79675533883309856975	     85.05616386416954810556	      0.77155892757214117328	      3.42864778868955211166	      0.00000000000000000000	      0.00000000000000000000
      6.09999999999999964473	     26.01169360091797599921	      6.43515802911434153799	   -177.73831357539870623441	      0.37519330630171288110	      0.84237136591477701497	     -0.61212483607569734279	     46.22132126245259797770	     -3.65930920403889015091	    -17.77066168681252378292	     20.91469729246631104047	      0.36503032981148053615	      2.16860820682186661301	      0.00000000000000000000	      0.00000000000000000000	     51.36697185665840947877	    -11.86073234843959589568	     -0.30542377115872171300	     26.44936197281978351725	      0.46162845147748821084	      1.84543489043000064065	      0.00000000000000000000	      0.00000000000000000000	      0.38430867740953528200	     11.40290416687692953701	     -0.45215007295354425754	     28.78803334922847767530	    -11.75449519885538229858	     62.56859989535114863202	      1.75090154132857156455	     85.37636598679245025778	      0.00000000000000000000	      0.00000000000000000000	     19.55728506910030262134	     -6.83836807775489408101	     84.94653852724106002370	      0.77450131716081815902	      3.50341372052372568291	      0.00000000000000000000	      0.00000000000000000000
      6.10500000000000042633	     26.01627687665661525784	      6.50679018720901591877	   -177.86555093778380864933	      0.37365104730076031947	      0.84305731141281015084	     -0.61230758279235808494	     45.92732236953315094752	     -3.43562598763219950726	    -17.79227780313456364070	     20.53221615597412608167	      0.35835477465292209232	      2.09110686221710695420	      0.00000000000000000000	      0.00000000000000000000	     51.13751266854298904718	    -12.03897822247730076128	     -0.40135002749615272810	     26.26660100204090753095	      0.45843867079325567593	      1.91287687725467003830	      0.00000000000000000000	      0.00000000000000000000	      0.93535480274775639753	     11.43843195766679166070	     -0.53448231162425741125	     28.44329050579862538939	    -11.71442827285413024185	     62.02937559153698998671	      1.80833412020013351018	     85.46443315612519597835	      0.00000000000000000000	      0.00000000000000000000	     19.16369741713135255168	     -6.91116919962604736583	     84.59000325928749930426	      0.78685467110146067871	      3.52092432018856360543	      0.00000000000000000000	      0.00000000000000000000
